<svg xmlns="http://www.w3.org/2000/svg" width="20" height="20" viewBox="0 0 20 20" fill="none">
  <path d="M0 20H3.80952V9.26829H0V20ZM18.0952 15.122H11.4286L9.4381 14.4098L9.75238 13.4927L11.4286 14.1463H14.1143C14.7333 14.1463 15.2381 13.6293 15.2381 12.9951C15.2381 12.5171 14.9429 12.0878 14.5048 11.9122L7.59048 9.26829H5.71429V18.0683L12.381 20L20 17.0732C19.9905 16 19.1524 15.122 18.0952 15.122ZM12.381 0L5.71429 4.87805V7.31707H7.61905L15.3714 10.4976C16.4381 10.9366 17.1429 11.9902 17.1429 13.1707H19.0476V4.87805L12.381 0ZM11.9048 8.29268H10.9524V7.31707H11.9048V8.29268ZM11.9048 6.34146H10.9524V5.36585H11.9048V6.34146ZM13.8095 8.29268H12.8571V7.31707H13.8095V8.29268ZM13.8095 6.34146H12.8571V5.36585H13.8095V6.34146Z" fill="white"/>
</svg>